<?xml version="1.0" encoding="utf-8"?>
<!-- Generator: Adobe Illustrator 25.0.1, SVG Export Plug-In . SVG Version: 6.00 Build 0)  -->
<svg version="1.1" id="Layer_2" xmlns="http://www.w3.org/2000/svg" xmlns:xlink="http://www.w3.org/1999/xlink" x="0px" y="0px"
	 viewBox="0 0 151.6 40" style="enable-background:new 0 0 151.6 40;" xml:space="preserve">
<style type="text/css">
	.st0{fill:#FFFFFF;}
	.st1{fill:url(#Shape_2_);}
	.st2{clip-path:url(#SVGID_2_);}
	.st3{fill:url(#SVGID_3_);}
	.st4{clip-path:url(#SVGID_5_);}
	.st5{fill:url(#SVGID_6_);}
	.st6{fill:url(#shadow_2_);}
	.st7{clip-path:url(#SVGID_8_);}
	.st8{fill:url(#SVGID_9_);}
	.st9{fill:url(#SVGID_10_);}
	.st10{fill:url(#SVGID_11_);}
	.st11{clip-path:url(#SVGID_13_);}
	.st12{fill:url(#SVGID_14_);}
</style>
<path class="st0" d="M64.3,22.3c0,1.3-1,2.3-2.3,2.3l0,0h-4.5c-1.2,0-2.3-1-2.3-2.3V11h-4.5v11.3c0,3.7,3,6.7,6.8,6.7H62
	c3.7,0,6.8-3,6.8-6.8V11h-4.5V22.3z"/>
<path class="st0" d="M114.7,17.7v4.5c0,3.7,3,6.7,6.8,6.7h9v-4.5h-9c-1.2,0-2.3-1-2.3-2.3v-4.5c0-1.2,1-2.3,2.3-2.3h9V11h-9
	C117.8,11,114.7,14,114.7,17.7z"/>
<path class="st0" d="M83.1,11h-4.5c-3.7,0-6.8,3-6.8,6.8v15.8h4.5V29h6.8c3.7,0,6.8-3,6.8-6.8v-4.5C89.9,14,86.8,11,83.1,11z
	 M85.4,22.3c0,1.2-1,2.3-2.3,2.3l0,0h-6.8v-6.8c0-1.2,1-2.3,2.2-2.3H83c1.2,0,2.3,1,2.3,2.3l0,0L85.4,22.3z"/>
<path class="st0" d="M97.4,6.4h-4.5v15.8c0,3.7,3.1,6.7,6.8,6.7h4.5v-4.5h-4.5c-1.2,0-2.3-1-2.3-2.3l0,0v-6.8h6.8V11h-6.8V6.4z"/>
<rect x="107.2" y="11" class="st0" width="4.5" height="18.1"/>
<path class="st0" d="M151.6,11h-4.5v2.3c0,1.2-1,2.3-2.3,2.2H138V11h-4.5v18h4.5v-9h6.6c1.3,0,2.4,1.1,2.4,2.4V29h4.5v-6.6
	c0-1.7-0.6-3.3-1.8-4.6c1.1-1.2,1.8-2.9,1.8-4.6V11H151.6z"/>
<g>
	
		<linearGradient id="Shape_2_" gradientUnits="userSpaceOnUse" x1="0.2013" y1="822.0758" x2="36.4446" y2="822.0758" gradientTransform="matrix(1 0 0 1 0 -802)">
		<stop  offset="0" style="stop-color:#D300FD"/>
		<stop  offset="0.7462" style="stop-color:#7471FF"/>
		<stop  offset="1" style="stop-color:#00FDCF"/>
	</linearGradient>
	<path id="Shape_1_" class="st1" d="M25.6,1.2L14.9,7.3c-0.1,0.1-0.2,0.2-0.2,0.4V30c0,0.8-0.7,1.4-1.5,1.4c-0.3,0-0.5-0.1-0.7-0.2
		l-1.4-0.8c-2.2-1.3-3.6-3.7-3.6-6.3V11.9c0-0.1-0.1-0.1-0.1-0.1H7.3l-6.8,3.9c-0.1,0.1-0.2,0.2-0.2,0.4v8.1c0,5.2,2.8,10,7.2,12.6
		l3.6,2.1c3.5,2,7.9,0.8,9.9-2.7c0.6-1.1,1-2.4,1-3.6v-4.2l7.2-4.2c4.5-2.6,7.2-7.4,7.2-12.5V7.5c0-4-3.3-7.2-7.3-7.2
		C27.9,0.2,26.7,0.6,25.6,1.2z M25.6,17.9L22,20v-8.4l5-2.8c0.7-0.4,1.6-0.2,2,0.5c0.1,0.2,0.2,0.5,0.2,0.7v1.7
		C29.2,14.3,27.8,16.6,25.6,17.9L25.6,17.9z"/>
	<g id="Effects_1_">
		<g id="_1_1_">
			<g>
				<g>
					<defs>
						<path id="SVGID_1_" d="M10.8,38.7l-3.3-1.9C3,34.2,0.2,29.4,0.2,24.2v-8.3c0-0.1,0-0.1,0.1-0.1l7.2-4.1v20.9
							C7.5,35.1,8.7,37.3,10.8,38.7z"/>
					</defs>
					<clipPath id="SVGID_2_">
						<use xlink:href="#SVGID_1_"  style="overflow:visible;"/>
					</clipPath>
					<g class="st2">
						
							<linearGradient id="SVGID_3_" gradientUnits="userSpaceOnUse" x1="9.0278" y1="840.9177" x2="9.0278" y2="813.6627" gradientTransform="matrix(1 0 0 1 0 -802)">
							<stop  offset="0" style="stop-color:#FFFFFF;stop-opacity:0"/>
							<stop  offset="0.49" style="stop-color:#FFFFFF;stop-opacity:0.5"/>
							<stop  offset="1" style="stop-color:#FFFFFF;stop-opacity:0"/>
						</linearGradient>
						<path class="st3" d="M10.8,38.7C9.6,38,8.7,37,8.1,35.9c-0.6-1.2-0.9-2.5-0.8-3.9c0-2.6-0.1-5.2,0-7.8v-0.3h0.3l-0.3,0.3
							c0-2.1,0-4.2,0.1-6.3s0.1-4.2,0.2-6.3c0.1,2.1,0.2,4.2,0.2,6.3s0,4.2,0.1,6.3v0.3H7.5l0.3-0.3c0,2.6,0,5.2,0,7.8
							C7.5,34.6,8.6,37.2,10.8,38.7z"/>
					</g>
				</g>
			</g>
		</g>
		<g id="_2_1_">
			<g>
				<g>
					<defs>
						<path id="SVGID_4_" d="M25.3,1.3c-2.1,1.3-3.4,3.6-3.4,6.1v25.1c0,4-3.2,7.2-7.2,7.2h-0.1h-0.4l0,0h-0.3h-0.3
							c-0.2,0-0.5-0.1-0.7-0.1l0,0l-0.5-0.1L12,39.4c-0.3-0.1-0.6-0.3-0.9-0.4l-0.3-0.2l0,0c-2.1-1.3-3.3-3.6-3.3-6.1v-8.4
							c0,2.6,1.4,5,3.6,6.3l1.4,0.8c0.7,0.4,1.6,0.2,2-0.5c0.1-0.2,0.2-0.5,0.2-0.7V7.7c0-0.2,0.1-0.3,0.2-0.4L25.3,1.3z"/>
					</defs>
					<clipPath id="SVGID_5_">
						<use xlink:href="#SVGID_4_"  style="overflow:visible;"/>
					</clipPath>
					<g class="st4">
						<g id="border_1_">
							
								<linearGradient id="SVGID_6_" gradientUnits="userSpaceOnUse" x1="23.45" y1="834.5823" x2="23.45" y2="803.1086" gradientTransform="matrix(1 0 0 1 0 -802)">
								<stop  offset="0" style="stop-color:#FFFFFF;stop-opacity:0"/>
								<stop  offset="0.49" style="stop-color:#FFFFFF;stop-opacity:0.5"/>
								<stop  offset="1" style="stop-color:#FFFFFF;stop-opacity:0"/>
							</linearGradient>
							<path class="st5" d="M25.3,1.3c-1.1,0.8-2,1.8-2.5,3c-0.3,0.6-0.5,1.2-0.6,1.9s-0.1,1.3-0.1,2c0,2.7,0,5.4,0.1,8.1l-0.1,8.1
								c0,2.7-0.1,5.4-0.2,8.1c-0.1-2.7-0.2-5.4-0.2-8.1l-0.1-8.1c0-2.7,0-5.4,0.1-8.1c0-0.7,0-1.4,0.1-2c0.1-0.7,0.3-1.3,0.7-2
								C23.2,3,24.1,2,25.3,1.3z"/>
						</g>
						
							<radialGradient id="shadow_2_" cx="7.2397" cy="835.5609" r="15.0047" gradientTransform="matrix(1 0 0 1 0 -802)" gradientUnits="userSpaceOnUse">
							<stop  offset="0" style="stop-color:#00032D;stop-opacity:0.4"/>
							<stop  offset="0.48" style="stop-color:#00032D;stop-opacity:0.15"/>
							<stop  offset="1" style="stop-color:#00032D;stop-opacity:0"/>
						</radialGradient>
						<path id="shadow_1_" class="st6" d="M25.3,1.3c-2.1,1.3-3.4,3.6-3.4,6.1v25.1c0,4-3.2,7.2-7.2,7.2h-0.1h-0.4l0,0h-0.3h-0.3
							c-0.2,0-0.5-0.1-0.7-0.1l0,0l-0.5-0.1L12,39.4c-0.3-0.1-0.6-0.3-0.9-0.4l-0.3-0.2l0,0c-2.1-1.3-3.3-3.6-3.3-6.1v-8.4
							c0,2.6,1.4,5,3.6,6.3l1.4,0.8c0.7,0.4,1.6,0.2,2-0.5c0.1-0.2,0.2-0.5,0.2-0.7V7.7c0-0.2,0.1-0.3,0.2-0.4L25.3,1.3z"/>
					</g>
				</g>
			</g>
		</g>
		<g id="_3_1_">
			<g>
				<g>
					<defs>
						<path id="SVGID_7_" d="M36.5,7.5v4.2c0,5.2-2.8,10-7.2,12.5L22,28.4V20l3.6-2.1c2.2-1.3,3.6-3.7,3.6-6.3V10
							c0-0.8-0.7-1.4-1.5-1.4c-0.3,0-0.5,0.1-0.7,0.2l-5,2.8V7.5c0-2.5,1.3-4.8,3.4-6.1l0.3-0.2l0.2-0.1L26,0.9
							c0.3-0.1,0.6-0.3,0.9-0.4l0,0l0.4-0.1l0,0c0.1,0,0.3-0.1,0.4-0.1s0.4-0.1,0.6-0.1h0.4l0,0h0.4l0,0C33.2,0.2,36.4,3.5,36.5,7.5
							z"/>
					</defs>
					<clipPath id="SVGID_8_">
						<use xlink:href="#SVGID_7_"  style="overflow:visible;"/>
					</clipPath>
					<g class="st7">
						<g id="shadow_top_bottom_1_">
							
								<radialGradient id="SVGID_9_" cx="23.1288" cy="806.4938" r="17.0633" gradientTransform="matrix(1 0 0 1 0 -802)" gradientUnits="userSpaceOnUse">
								<stop  offset="0" style="stop-color:#00032D;stop-opacity:0.4"/>
								<stop  offset="0.48" style="stop-color:#00032D;stop-opacity:0.15"/>
								<stop  offset="1" style="stop-color:#00032D;stop-opacity:0"/>
							</radialGradient>
							<path class="st8" d="M36.5,7.5v4.2c0,5.2-2.8,10-7.2,12.5L22,28.4V20l3.6-2.1c2.2-1.3,3.6-3.7,3.6-6.3V10
								c0-0.8-0.7-1.4-1.5-1.4c-0.3,0-0.5,0.1-0.7,0.2l-5,2.8V7.5c0-2.5,1.3-4.8,3.4-6.1l0.3-0.2l0.2-0.1L26,0.9
								c0.3-0.1,0.6-0.3,0.9-0.4l0,0l0.4-0.1l0,0c0.1,0,0.3-0.1,0.4-0.1s0.4-0.1,0.6-0.1h0.4l0,0h0.4l0,0
								C33.2,0.2,36.4,3.5,36.5,7.5z"/>
							
								<radialGradient id="SVGID_10_" cx="21.5268" cy="826.5942" r="15.9616" gradientTransform="matrix(1 0 0 1 0 -802)" gradientUnits="userSpaceOnUse">
								<stop  offset="0" style="stop-color:#00032D;stop-opacity:0.4"/>
								<stop  offset="0.48" style="stop-color:#00032D;stop-opacity:0.15"/>
								<stop  offset="1" style="stop-color:#00032D;stop-opacity:0"/>
							</radialGradient>
							<path class="st9" d="M36.5,7.5v4.2c0,5.2-2.8,10-7.2,12.5L22,28.4V20l3.6-2.1c2.2-1.3,3.6-3.7,3.6-6.3V10
								c0-0.8-0.7-1.4-1.5-1.4c-0.3,0-0.5,0.1-0.7,0.2l-5,2.8V7.5c0-2.5,1.3-4.8,3.4-6.1l0.3-0.2l0.2-0.1L26,0.9
								c0.3-0.1,0.6-0.3,0.9-0.4l0,0l0.4-0.1l0,0c0.1,0,0.3-0.1,0.4-0.1s0.4-0.1,0.6-0.1h0.4l0,0h0.4l0,0
								C33.2,0.2,36.4,3.5,36.5,7.5z"/>
						</g>
						<g id="shadow_right_1_">
							
								<linearGradient id="SVGID_11_" gradientUnits="userSpaceOnUse" x1="33.7559" y1="816.0321" x2="27.4931" y2="809.7185" gradientTransform="matrix(1 0 0 1 0 -802)">
								<stop  offset="0" style="stop-color:#00032D;stop-opacity:0.4"/>
								<stop  offset="0.48" style="stop-color:#00032D;stop-opacity:0.15"/>
								<stop  offset="1" style="stop-color:#00032D;stop-opacity:0"/>
							</linearGradient>
							<path class="st10" d="M36.4,7.5c0,2.5-1.3,4.9-3.5,6.2l-0.3,0.2L25.5,18c2.2-1.3,3.6-3.7,3.6-6.3V10c0-0.8-0.7-1.4-1.5-1.4
								c-0.3,0-0.5,0.1-0.7,0.2L22,11.6V7.5c0-2.5,1.3-4.8,3.4-6.1l0.3-0.2l0.2-0.1L26,0.9c0.3-0.1,0.6-0.3,0.9-0.4l0,0l0.4-0.1l0,0
								c0.1,0,0.3-0.1,0.4-0.1s0.4-0.1,0.6-0.1h0.4l0,0h0.4l0,0c0.5,0,0.9,0,1.4,0.1h0.1c0.2,0,0.5,0.1,0.7,0.2
								c0.1,0,0.2,0.1,0.3,0.1c0.1,0,0.2,0.1,0.3,0.1L32.3,1l0.3,0.2L33,1.3l0.3,0.2l0.3,0.2c1.6,1.2,2.7,3,2.9,5l0,0
								C36.4,7,36.4,7.2,36.4,7.5z"/>
						</g>
						<g id="_3.1_1_">
							<g>
								<g>
									<defs>
										<path id="SVGID_12_" d="M36.5,7.5v4.2c0,5.2-2.8,10-7.2,12.5L22,28.4V20l3.6-2.1h0.1l7-4.1l0.3-0.2
											C35.1,12.3,36.5,10,36.5,7.5z"/>
									</defs>
									<clipPath id="SVGID_13_">
										<use xlink:href="#SVGID_12_"  style="overflow:visible;"/>
									</clipPath>
									<g class="st11">
										<g id="border-2_1_">
											
												<linearGradient id="SVGID_14_" gradientUnits="userSpaceOnUse" x1="29.1562" y1="822.2668" x2="29.1562" y2="809.4658" gradientTransform="matrix(1 0 0 1 0 -802)">
												<stop  offset="0" style="stop-color:#FFFFFF;stop-opacity:0"/>
												<stop  offset="0.49" style="stop-color:#FFFFFF;stop-opacity:0.5"/>
												<stop  offset="1" style="stop-color:#FFFFFF;stop-opacity:0"/>
											</linearGradient>
											<path class="st12" d="M36.4,7.5c0.1,1.7-0.4,3.4-1.5,4.8C34.4,13,33.7,13.6,33,14l-2.2,1.3c-1.4,0.8-2.9,1.7-4.4,2.5
												s-3,1.6-4.5,2.3c1.4-0.9,2.8-1.8,4.3-2.7s2.9-1.7,4.3-2.6l2.2-1.2C34.9,12.3,36.3,10,36.4,7.5z"/>
										</g>
									</g>
								</g>
							</g>
						</g>
					</g>
				</g>
			</g>
		</g>
	</g>
</g>
</svg>
